<svg width="25" height="15" viewBox="0 0 25 15" fill="none" xmlns="http://www.w3.org/2000/svg">
<path d="M0 13.75C0 14.4375 0.5625 15 1.25 15H23.75C24.4375 15 25 14.4375 25 13.75C25 13.0625 24.4375 12.5 23.75 12.5H1.25C0.5625 12.5 0 13.0625 0 13.75ZM0 7.5C0 8.1875 0.5625 8.75 1.25 8.75H23.75C24.4375 8.75 25 8.1875 25 7.5C25 6.8125 24.4375 6.25 23.75 6.25H1.25C0.5625 6.25 0 6.8125 0 7.5ZM0 1.25C0 1.9375 0.5625 2.5 1.25 2.5H23.75C24.4375 2.5 25 1.9375 25 1.25C25 0.5625 24.4375 0 23.75 0H1.25C0.5625 0 0 0.5625 0 1.25Z" fill="white"/>
</svg>
