<svg width="15" height="15" viewBox="0 0 15 15" fill="none" xmlns="http://www.w3.org/2000/svg">
<path d="M6.49167 11.075C6.81667 11.4 7.34167 11.4 7.66667 11.075L10.6583 8.08333C10.9833 7.75833 10.9833 7.23333 10.6583 6.90833L7.66667 3.91667C7.34167 3.59167 6.81667 3.59167 6.49167 3.91667C6.16667 4.24167 6.16667 4.76667 6.49167 5.09167L8.05833 6.66667H0.833333C0.375 6.66667 0 7.04167 0 7.5C0 7.95833 0.375 8.33333 0.833333 8.33333H8.05833L6.49167 9.9C6.16667 10.225 6.175 10.7583 6.49167 11.075ZM13.3333 0H1.66667C0.741667 0 0 0.75 0 1.66667V4.16667C0 4.625 0.375 5 0.833333 5C1.29167 5 1.66667 4.625 1.66667 4.16667V2.5C1.66667 2.04167 2.04167 1.66667 2.5 1.66667H12.5C12.9583 1.66667 13.3333 2.04167 13.3333 2.5V12.5C13.3333 12.9583 12.9583 13.3333 12.5 13.3333H2.5C2.04167 13.3333 1.66667 12.9583 1.66667 12.5V10.8333C1.66667 10.375 1.29167 10 0.833333 10C0.375 10 0 10.375 0 10.8333V13.3333C0 14.25 0.75 15 1.66667 15H13.3333C14.25 15 15 14.25 15 13.3333V1.66667C15 0.75 14.25 0 13.3333 0Z" fill="white"/>
</svg>
