<svg width="30" height="30" viewBox="0 0 30 30" fill="none" xmlns="http://www.w3.org/2000/svg">
<circle cx="15" cy="15" r="15" fill="#514439"/>
<g clip-path="url(#clip0_798_3)">
<path d="M16.5 14.445V10.5H18.75V13.5H20.25V9H16.5V8.25H9.75V20.25H8.25V21.75H15.195C14.6025 20.9025 14.25 19.8675 14.25 18.75C14.25 16.965 15.1425 15.3975 16.5 14.445ZM13.5 14.25H15V15.75H13.5V14.25ZM22.2675 18.2775L23.1225 17.5275L22.3725 16.23L21.285 16.5975C21.045 16.395 20.775 16.2375 20.475 16.125L20.25 15H18.75L18.525 16.1175C18.225 16.23 17.955 16.3875 17.715 16.59L16.6275 16.2225L15.8775 17.52L16.7325 18.27C16.6725 18.645 16.6725 18.84 16.7325 19.215L15.8775 19.965L16.6275 21.2625L17.715 20.895C17.955 21.0975 18.225 21.255 18.525 21.3675L18.75 22.5H20.25L20.475 21.3825C20.775 21.27 21.045 21.1125 21.285 20.91L22.3725 21.2775L23.1225 19.98L22.2675 19.23C22.3275 18.8475 22.3275 18.6525 22.2675 18.2775ZM19.5 20.25C18.675 20.25 18 19.575 18 18.75C18 17.925 18.675 17.25 19.5 17.25C20.325 17.25 21 17.925 21 18.75C21 19.575 20.325 20.25 19.5 20.25Z" fill="white"/>
</g>
<defs>
<clipPath id="clip0_798_3">
<rect width="18" height="18" fill="white" transform="translate(6 6)"/>
</clipPath>
</defs>
</svg>
