<svg width="120" height="110" viewBox="0 0 120 110" fill="none" xmlns="http://www.w3.org/2000/svg">
<g filter="url(#filter0_d_448_360)">
<path d="M7 41.9906C7 33.5713 13.8252 26.7462 22.2444 26.7462H97.294C105.713 26.7462 112.538 33.5713 112.538 41.9906C112.538 46.2002 109.126 49.6128 104.916 49.6128H14.6222C10.4126 49.6128 7 46.2002 7 41.9906Z" fill="#3C6B17" stroke="#353535" stroke-width="5"/>
<path d="M15.7949 49.7887H103.744V79.04C103.744 90.0857 94.7893 99.04 83.7436 99.04H35.7949C24.7492 99.04 15.7949 90.0857 15.7949 79.04V49.7887Z" fill="#3C6B17" stroke="#353535" stroke-width="5"/>
<path d="M16.2344 50.2285L103.304 50.2285V57.88H16.2344V50.2285Z" fill="black" fill-opacity="0.3"/>
<rect x="50.0947" y="49.6128" width="19.3487" height="49.2513" fill="#FFCD1E" stroke="#353535" stroke-width="5"/>
<rect x="47.1045" y="26.7462" width="25.3292" height="22.8667" fill="#FFCD1E" stroke="#353535" stroke-width="5"/>
<rect x="46.0488" y="10.5636" width="27.6159" height="16.1826" fill="#FFCD1E" stroke="#353535" stroke-width="5"/>
<path d="M73.1367 10.6729C73.1367 10.6729 98.9505 -2.03815 102.147 5.26044C105.343 12.559 102.147 26.7462 102.147 26.7462H73.1367V10.6729Z" fill="#FFCD1E" stroke="#353535" stroke-width="5"/>
<path d="M46.4014 10.6729C46.4014 10.6729 20.5876 -2.03815 17.3916 5.26044C14.1956 12.559 17.3916 26.7462 17.3916 26.7462H46.4014V10.6729Z" fill="#FFCD1E" stroke="#353535" stroke-width="5"/>
<rect x="56" y="14" width="10.5538" height="2.11077" rx="1.05538" fill="white"/>
<rect x="67.4326" y="14" width="2.11077" height="2.11077" rx="1.05538" fill="white"/>
</g>
<defs>
<filter id="filter0_d_448_360" x="0.5" y="0.499939" width="118.538" height="109.04" filterUnits="userSpaceOnUse" color-interpolation-filters="sRGB">
<feFlood flood-opacity="0" result="BackgroundImageFix"/>
<feColorMatrix in="SourceAlpha" type="matrix" values="0 0 0 0 0 0 0 0 0 0 0 0 0 0 0 0 0 0 127 0" result="hardAlpha"/>
<feOffset dy="4"/>
<feGaussianBlur stdDeviation="2"/>
<feComposite in2="hardAlpha" operator="out"/>
<feColorMatrix type="matrix" values="0 0 0 0 0 0 0 0 0 0 0 0 0 0 0 0 0 0 0.25 0"/>
<feBlend mode="normal" in2="BackgroundImageFix" result="effect1_dropShadow_448_360"/>
<feBlend mode="normal" in="SourceGraphic" in2="effect1_dropShadow_448_360" result="shape"/>
</filter>
</defs>
</svg>
